<svg version="1.1" xmlns="http://www.w3.org/2000/svg" style="display: block;" viewBox="0 0 4000 1156" width="4000" height="1156" preserveAspectRatio="none">
<path transform="translate(0,0)" fill="rgb(101,101,101)" d="M 1820.52 356.348 C 1843 355.61 1867.06 356.273 1889.73 356.156 C 1937.35 355.066 1978.9 356.188 2025.88 364.74 C 2169.2 390.833 2245.16 524.296 2216.69 663.462 C 2203.61 727.42 2164.81 777.323 2109.63 813.063 C 2036.04 858.747 1964.78 852.454 1882.72 852.295 C 1863.31 852.257 1830.99 854.25 1813.07 851.216 C 1800.59 849.171 1788.83 844.046 1778.83 836.305 C 1739.18 805.41 1747.17 761.701 1747.24 716.942 L 1747.27 598.849 L 1747.24 483.389 C 1747.24 469.842 1746.47 436.141 1748.04 424.213 C 1749.82 410.415 1755.3 397.356 1763.9 386.419 C 1778.72 367.619 1797.12 359.1 1820.52 356.348 z M 1906.8 715.593 C 1952.16 715.68 1995.7 718.654 2031.65 684.762 C 2053.61 663.069 2064.12 639.934 2064.3 608.822 C 2064.48 580.157 2055.25 549.973 2034.41 529.744 C 2001.91 498.206 1968.27 493.917 1925.72 493.875 L 1906.8 493.896 L 1906.8 715.593 z"/>
<path transform="translate(0,0)" fill="rgb(101,101,101)" d="M 2328.8 356.408 C 2359.66 355.084 2395.79 356.417 2427.2 356.115 C 2459.48 356.16 2490.18 355.319 2522.43 358.274 C 2620.23 367.238 2679.14 448.421 2668.17 544.185 C 2662.04 597.77 2634.78 622.619 2594.36 653.857 C 2607.64 671.961 2622.2 689.841 2635.56 707.945 C 2645.69 722.117 2657.78 734.571 2664.49 750.919 C 2687.51 807.004 2640.14 866.251 2580.86 859.317 C 2554.19 856.199 2536.12 838.974 2520.34 818.574 C 2485.27 768.794 2449.98 714.587 2415.7 663.896 L 2415.77 743.51 C 2415.8 759.105 2416.83 784.837 2413.55 799.547 C 2411.04 810.992 2405.93 821.703 2398.6 830.843 C 2355.19 885.201 2263.88 859.292 2256.84 789.004 C 2254.83 769.017 2256.12 744.19 2256.14 723.773 L 2256.17 602.503 L 2256.14 487.545 C 2256.11 427.84 2248.89 364.448 2328.8 356.408 z M 2415.71 553.113 C 2438.31 553.197 2468.06 554.514 2490.28 551.712 C 2494.01 551.241 2499.12 547.602 2502.03 545.035 C 2516.15 527.568 2512.17 496.226 2486.87 494.322 C 2464.28 492.622 2438.62 493.798 2415.71 493.896 L 2415.71 553.113 z"/>
<path transform="translate(0,0)" fill="rgb(254,58,79)" d="M 430.385 358.273 C 434.306 357.917 438.243 357.774 442.179 357.846 C 477.562 357.948 508.503 381.71 517.732 415.868 C 522.113 431.969 520.911 455.289 520.901 472.525 L 520.77 591.017 C 520.737 615.139 519.049 641.498 523.185 665.37 C 533.984 727.701 611.777 745.461 659.389 713.748 C 697.586 688.306 692.263 640.753 692.247 600.557 L 692.158 491.596 C 692.137 471.179 690.026 435.194 694.866 416.512 C 709.946 358.307 785.713 337.041 828.273 381.216 C 857.427 411.477 851.803 444.553 851.788 483.223 L 851.712 561.5 C 851.838 635.6 858.705 707.008 813.538 770.858 C 775.162 825.109 719.42 849.388 655.529 860.879 C 587.006 873.203 503.869 858.266 446.486 818.599 C 401.724 787.656 374.116 739.636 365.323 686.428 C 360.502 657.261 361.253 632.89 361.258 603.6 L 361.316 516.138 L 361.221 463.168 C 361.201 451.413 360.556 438.631 362.276 427.073 C 367.774 390.127 394.037 364.446 430.385 358.273 z"/>
<path transform="translate(0,0)" fill="rgb(254,58,79)" d="M 1083.01 359.437 C 1087.72 359.24 1092.44 359.148 1097.15 359.161 C 1140.52 359.448 1204.24 372.049 1236.67 402.979 C 1263.1 428.191 1264.32 478.624 1236.25 503.658 C 1187.82 546.858 1123.06 495.158 1068.57 494.746 C 1059.89 494.681 1050.49 495.093 1043.96 501.492 C 1022.98 522.619 1071.24 528.563 1083.79 532.048 C 1137.16 546.869 1205.71 557.639 1247.37 596.55 C 1273.77 621.182 1289.14 655.41 1290 691.508 C 1291.52 742.729 1266.45 787.062 1226.92 818.399 C 1180.46 855.225 1117.69 862.736 1060.25 864.281 C 1003.36 864.702 944.599 858.381 900.233 818.26 C 860.152 782.014 881.597 699.461 939.303 697.794 C 956.195 697.306 970.541 702.066 986.63 706.458 C 1019.3 714.316 1052.55 726.057 1086.33 726.75 C 1119.92 727.232 1152.11 699.247 1102.74 686.87 C 1074.88 679.886 1046.49 672.961 1018.87 665.058 C 985.428 655.491 950.726 645.535 923.972 622.165 C 866.763 571.707 871.428 481.303 920.854 427.161 C 963.478 380.47 1022.15 363.4 1083.01 359.437 z"/>
<path transform="translate(0,0)" fill="rgb(101,101,101)" d="M 3426.56 356.366 C 3427.66 356.27 3428.86 356.159 3429.97 356.164 C 3496.35 356.466 3562.83 355.458 3629.18 356.651 C 3644.3 356.923 3658.68 364.986 3669.45 375.338 C 3707.53 411.946 3690.87 477.039 3640.79 492.042 C 3625.99 496.297 3599.73 494.723 3583.26 494.709 L 3513.05 494.627 L 3513.05 536.764 C 3534.6 536.738 3606.32 534.948 3622.87 539.281 C 3635.53 542.729 3647.1 549.341 3656.5 558.494 C 3669.22 570.674 3676.14 585.562 3676.4 603.259 C 3676.71 620.581 3669.93 637.276 3657.63 649.482 C 3631.72 675.666 3603.01 672.099 3569.68 672.041 L 3513.05 671.972 L 3513.05 714.881 L 3559.5 714.881 C 3605.85 714.953 3659.99 705.319 3685.35 755.835 C 3688.19 761.487 3690.04 768.058 3690.94 774.312 C 3693.57 791.545 3689.01 809.104 3678.33 822.878 C 3666.23 838.81 3648.25 849.222 3628.41 851.78 C 3619.03 852.977 3602.33 852.286 3592.1 852.275 L 3524.72 852.231 L 3462.25 852.288 C 3449.08 852.345 3432.96 853.014 3419.99 851.237 C 3389.94 847.122 3358.16 814.745 3354.87 784.596 C 3352.53 763.212 3353.68 736.409 3353.68 714.597 L 3353.64 588.416 L 3353.63 480.725 C 3353.64 466.473 3352.85 436.39 3354.56 423.182 C 3356.21 409.591 3361.55 396.713 3370.02 385.952 C 3384.98 366.957 3403.25 359.006 3426.56 356.366 z"/>
<path transform="translate(0,0)" fill="rgb(101,101,101)" d="M 3107.04 625.061 C 3136.37 550.416 3160.7 472.781 3190.24 398.101 C 3216.76 331.053 3313.83 338.428 3338.08 402.67 C 3343 415.729 3344.19 429.899 3341.51 443.593 C 3338.8 457.087 3324.29 487.169 3318.06 501.143 L 3277.33 592.271 L 3209.98 743.453 C 3197.65 771.194 3185.35 803.039 3169.52 828.552 C 3152.96 853.75 3123.46 862.489 3095.05 859.357 C 3043.82 853.711 3027.9 796.849 3009.88 756.439 L 2960.37 645.365 L 2906.54 524.635 C 2897.94 505.379 2889.42 484.899 2880.4 466.01 C 2854.43 411.653 2885.73 359.582 2944.59 351.305 C 2964.51 348.787 2984.59 355.296 3000.48 367.053 C 3016.08 378.605 3023.04 392.932 3029.43 410.65 C 3036.53 430.327 3043.65 449.911 3050.75 469.539 L 3107.04 625.061 z"/>
<path transform="translate(0,0)" fill="rgb(254,58,79)" d="M 1350.16 364.233 C 1352.88 364.067 1355.6 363.95 1358.32 363.882 C 1418.16 362.858 1480.89 363.799 1541.09 363.81 L 1599.21 363.833 C 1629.2 363.853 1653.51 360.029 1676.94 383.181 C 1690.41 396.398 1697.96 414.508 1697.86 433.382 C 1697.9 451.233 1691.5 468.41 1678.67 480.862 C 1656.91 501.97 1636.47 500.847 1609.32 500.784 L 1571.78 500.645 L 1571.8 690.985 C 1571.8 723.791 1572.75 761.079 1571.5 793.259 C 1565.96 861.404 1483.98 888.83 1436.63 842.142 C 1411.49 817.358 1413.68 792.676 1413.67 760.193 L 1413.66 704.91 L 1413.7 500.649 C 1384.31 500.772 1344.14 505.256 1320.61 489.017 C 1305.97 478.866 1295.99 463.283 1292.89 445.735 C 1285.4 405.224 1309.64 371.189 1350.16 364.233 z"/>
<path transform="translate(0,0)" fill="rgb(101,101,101)" d="M 2770.12 352.244 C 2819.27 347.105 2860.64 382.852 2860.2 432.683 C 2860.09 445.075 2860.28 457.884 2860.28 470.313 L 2860.3 577.344 L 2860.28 716.168 C 2860.28 739.343 2861.03 763.743 2859.67 786.807 C 2857.45 824.328 2827.21 851.578 2791.23 857.821 C 2770.6 860.124 2752.27 856.366 2735.03 844.527 C 2694.95 817.012 2700.87 776.457 2700.87 734.407 L 2700.9 619.692 L 2700.87 486.698 C 2700.86 465.633 2699.49 440.754 2701.52 420.133 C 2705.09 383.828 2736.45 357.799 2770.12 352.244 z"/>
<path transform="translate(0,0)" fill="rgb(101,101,101)" d="M 1340.75 967.25 C 1367.09 967.244 1403.49 963.287 1424.48 981.525 C 1452.18 1005.59 1450.49 1058.91 1427.75 1085.56 C 1404.75 1108.26 1370.94 1104.23 1340.75 1104.08 L 1340.75 967.25 z M 1350.2 1095.93 C 1374.22 1096 1400.08 1098.16 1418.97 1080.51 C 1438.73 1056.94 1441.11 1010.13 1416.75 988.391 C 1399.92 973.369 1371.67 975.516 1350.21 975.676 L 1350.2 1095.93 z"/>
<path transform="translate(0,0)" fill="rgb(254,58,79)" d="M 3586.63 99.5007 C 3590.63 98.9717 3608.3 99.1676 3613 99.1579 L 3669.34 99.1206 C 3725.73 99.1116 3782.22 98.5564 3838.58 100.202 C 3843.34 100.341 3857.48 101.332 3861.56 103.392 C 3874.09 109.732 3868.02 118.433 3863.64 127.627 L 3807.5 127.625 C 3773.24 127.633 3534.49 130.311 3525.23 123.019 C 3523.21 121.427 3522.44 118.956 3522.21 116.474 C 3521.87 112.842 3523.28 108.222 3525.75 105.539 C 3532.83 97.8412 3574.5 99.6809 3586.63 99.5007 z"/>
<path transform="translate(0,0)" fill="rgb(101,101,101)" d="M 1630.13 967.25 C 1652.03 967.152 1685.52 963.621 1702.62 978.56 C 1718.47 992.405 1715.38 1023.04 1698.45 1035.04 C 1693.06 1038.87 1689.73 1040.03 1683.58 1042.24 L 1720.51 1104.07 L 1708.78 1104.08 L 1700.93 1090.72 L 1673.75 1044.85 L 1639.82 1044.85 L 1639.91 1081.43 C 1639.93 1088.43 1641.52 1098.81 1636.99 1104.24 C 1634.21 1105.42 1635.27 1105.46 1632.89 1104.55 C 1628.29 1099.83 1630.13 1065.48 1630.13 1057.35 L 1630.13 967.25 z M 1639.82 1036.48 C 1659.39 1036.64 1678.11 1039.29 1694.15 1027.57 C 1701.37 1018.61 1702.88 1012.33 1701.97 1000.76 C 1699.65 971.132 1661.23 975.504 1639.82 975.684 L 1639.82 1036.48 z"/>
<path transform="translate(0,0)" fill="rgb(101,101,101)" d="M 1909.96 967.243 C 1938.54 967.065 1989.25 960.747 1992.51 1000.4 C 1994.32 1022.48 1983.13 1035.25 1963.38 1042.21 L 2000.34 1104.06 L 1988.6 1104.08 L 1981.18 1091.47 L 1953.43 1044.85 L 1919.56 1044.85 C 1919.52 1061.38 1920.03 1082.24 1919.4 1099.07 C 1919.29 1102.05 1917.12 1103.69 1914.95 1105.14 C 1910.08 1104.21 1909.91 1100.16 1909.91 1095.8 C 1909.91 1083.38 1909.93 1070.97 1909.93 1058.55 L 1909.96 967.243 z M 1919.56 1036.48 C 1939.82 1036.64 1957.58 1039.41 1974.14 1027.33 C 1981.25 1018.31 1982.81 1011.44 1981.65 999.937 C 1978.74 971.191 1940.53 975.5 1919.56 975.688 L 1919.56 1036.48 z"/>
<path transform="translate(0,0)" fill="rgb(101,101,101)" d="M 2842.43 967.25 C 2870.83 967.099 2921.8 960.869 2925.06 1000.16 C 2926.9 1022.34 2915.64 1035.23 2895.82 1042.23 L 2932.81 1104.08 L 2921.11 1104.08 L 2913.83 1091.8 L 2885.96 1044.85 L 2852.03 1044.85 C 2852.06 1052.14 2853 1100.62 2850.98 1103.46 C 2847.97 1103.69 2845.35 1104.15 2842.47 1103.36 L 2842.43 967.25 z M 2852.03 1036.5 C 2870.93 1036.62 2890.08 1039.14 2905.7 1028.16 C 2913.02 1019.91 2914.73 1014.19 2914.42 1003.14 C 2913.5 970.925 2874.85 975.501 2852.03 975.679 L 2852.03 1036.5 z"/>
<path transform="translate(0,0)" fill="rgb(101,101,101)" d="M 1059.37 967.25 L 1074.29 967.248 L 1122.95 1087.95 L 1171.74 967.25 L 1186.27 967.248 L 1186.25 1062.28 C 1186.26 1073.77 1186.52 1086.66 1186.42 1098.24 C 1186.4 1100.89 1184.01 1103.72 1181.63 1105.26 C 1178.44 1105.16 1179.65 1105.67 1177.17 1103.05 C 1175.16 1096.42 1176.48 991.298 1177.44 979.139 C 1174.02 980.098 1133.42 1090.8 1125.74 1102.97 C 1122.26 1104.17 1123.71 1104.12 1120.24 1103.28 C 1116.32 1100.06 1073.69 990.756 1067.87 976.693 C 1069.88 1006.84 1068.12 1040.06 1068.7 1070.51 C 1068.79 1075.32 1069.04 1100.59 1068.36 1103.58 C 1064.3 1104.09 1063.76 1104.02 1059.83 1103.25 C 1058.76 1099.43 1059.44 1069.72 1059.45 1062.97 L 1059.37 967.25 z"/>
<path transform="translate(0,0)" fill="rgb(101,101,101)" d="M 2466.64 966.567 C 2469.55 966.504 2470.23 966.302 2472.85 967.364 C 2477.78 976.524 2486.82 1001.74 2491.15 1012.8 L 2526.82 1103.99 L 2515.98 1104.08 C 2509.44 1088.21 2503.14 1071.25 2496.88 1055.19 L 2473.5 1055.19 L 2441.6 1055.19 C 2436.69 1067.37 2428.23 1092.48 2422.49 1102.9 C 2419.68 1104.57 2415.1 1104.1 2411.61 1104.08 L 2466.64 966.567 z M 2445.03 1047.01 L 2470.5 1047.01 L 2493.71 1047.01 L 2469.61 982.874 C 2462.24 1004.06 2453.24 1026.04 2445.03 1047.01 z"/>
<path transform="translate(0,0)" fill="rgb(101,101,101)" d="M 1260.39 966.545 C 1263.33 966.5 1263.98 966.415 1266.74 967.372 C 1272.06 977.935 1280.76 1002.16 1285.32 1013.84 L 1320.62 1104.09 C 1307.9 1104.34 1309.23 1104 1304.54 1091.7 C 1299.89 1079.53 1295.29 1067.32 1290.55 1055.19 L 1266.5 1055.19 L 1235.34 1055.19 C 1232.24 1063.05 1220.6 1098.94 1215.29 1102.6 C 1212.69 1104.39 1210.43 1104.8 1207.4 1104.35 L 1206.51 1102.66 C 1209.14 1092.55 1220.49 1066.24 1224.76 1055.64 L 1260.39 966.545 z M 1238.79 1047.01 L 1263.5 1047.01 L 1287.57 1047.01 C 1279.29 1025.62 1271.22 1004.15 1263.36 982.6 C 1256.46 1003.4 1246.87 1026.42 1238.79 1047.01 z"/>
<path transform="translate(0,0)" fill="rgb(101,101,101)" d="M 2762.95 966.467 C 2765.93 966.478 2766.52 966.434 2769.32 967.405 C 2773.91 976.14 2782.96 1001.33 2787.09 1011.84 L 2823.24 1104.06 L 2812.2 1104.06 L 2793.19 1055.19 L 2768.5 1055.19 L 2737.87 1055.18 C 2731.97 1071.19 2724.98 1088.07 2718.71 1104.04 L 2707.93 1104.06 L 2762.95 966.467 z M 2741.29 1047.01 L 2767.5 1047.01 L 2789.92 1047.01 C 2787.41 1040.28 2767.42 985.199 2765.43 983.633 C 2759.88 1001.87 2748.5 1028.67 2741.29 1047.01 z"/>
<path transform="translate(0,0)" fill="rgb(101,101,101)" d="M 1780 966.491 C 1782.15 966.557 1783.85 966.798 1785.99 967.078 C 1789.49 971.039 1835.19 1090.9 1840.4 1104.07 L 1829.24 1104.06 L 1810.27 1055.19 L 1785.5 1055.19 L 1754.92 1055.19 C 1748.67 1071.53 1742.28 1087.82 1735.75 1104.05 L 1725.14 1104 C 1742.7 1058.23 1762.07 1012.3 1780 966.491 z M 1758.39 1047.01 L 1784.5 1047.01 L 1807.06 1047.01 C 1804.52 1040.23 1784.45 985.161 1782.56 983.648 C 1776.63 1002.61 1765.84 1028.06 1758.39 1047.01 z"/>
<path transform="translate(0,0)" fill="rgb(254,58,79)" d="M 3530.53 59.2966 C 3543.81 59.3503 3571.78 63.9925 3576.49 77.9398 C 3570.59 84.5951 3528.65 75.0851 3514.96 90.6904 C 3509.61 95.7313 3504.29 105.125 3504.55 113.079 C 3505.77 151.377 3555.51 146.24 3577.62 146.156 C 3577.91 146.344 3578.15 147.039 3578.35 147.442 C 3560.31 170.789 3527.28 174.639 3503.54 157.509 C 3491.77 148.929 3483.94 135.978 3481.8 121.567 C 3479.47 106.875 3483.13 91.8611 3491.97 79.8913 C 3501.98 66.5997 3514.65 61.3805 3530.53 59.2966 z"/>
<path transform="translate(0,0)" fill="rgb(254,58,79)" d="M 3844.19 62.3004 C 3861.13 61.2379 3874.72 61.6472 3889.04 72.6625 C 3900.04 81.1507 3907.2 93.6774 3908.93 107.464 C 3910.66 121.34 3906.67 135.325 3897.88 146.197 C 3878.95 169.484 3841.98 172.97 3818.69 153.873 C 3817.67 152.729 3816.68 151.261 3815.76 149.998 C 3818.13 138.943 3882.33 160.318 3885.77 115.518 C 3886.38 107.559 3883.72 99.6947 3878.42 93.7315 C 3864.66 78.033 3833 80.1561 3811.62 78.8356 C 3822.58 71.0237 3830.75 63.6063 3844.19 62.3004 z"/>
<path transform="translate(0,0)" fill="rgb(101,101,101)" d="M 2130.23 967.251 C 2134.04 967.147 2135.64 967.083 2139.46 967.634 C 2144.67 973.209 2161.61 999.571 2166.66 1007.13 L 2221.19 1088.85 C 2220.72 1075.15 2219.27 975.773 2221.51 969.352 C 2224.34 966.517 2223.44 967.359 2228.43 967.08 L 2229.68 968.359 C 2230.47 982.576 2231.6 1099.59 2228.84 1104.18 C 2226.37 1104.22 2223.9 1104.34 2221.47 1103.84 C 2217.5 1103.03 2146.65 994.22 2138.58 982.116 C 2140.2 1020.45 2138.92 1059.07 2139.81 1097.43 C 2139.89 1100.57 2138.81 1102.21 2136.6 1104.12 C 2133.09 1104.02 2132.76 1104.63 2130.45 1102.73 C 2129.1 1060.19 2130.24 1010.33 2130.23 967.251 z"/>
<path transform="translate(0,0)" fill="rgb(101,101,101)" d="M 1476.02 967.236 C 1488.27 967.317 1541.38 966.238 1550.27 968.102 L 1551.78 970.427 C 1551.73 972.792 1552.02 971.696 1550.78 973.805 C 1545.5 977.86 1532.78 976.349 1525.9 976.334 L 1485.66 976.273 L 1485.66 1028.13 C 1493.33 1028.17 1543.35 1026.95 1546.39 1029.23 C 1546.82 1032.2 1547.28 1033.87 1546.64 1036.82 C 1537.63 1038.91 1494.38 1035.09 1486.21 1037.99 L 1485.66 1040.75 L 1485.66 1095.07 C 1500.42 1095.09 1536.98 1094.03 1550.05 1095.2 C 1551.36 1097.39 1550.79 1100.02 1550.75 1103 C 1550.34 1103.37 1549.93 1103.74 1549.52 1104.11 C 1534.82 1104.12 1487.92 1104.08 1476.02 1104.08 L 1476.02 967.236 z"/>
<path transform="translate(0,0)" fill="rgb(101,101,101)" d="M 2024.19 967.25 C 2045.86 967.203 2077.35 966.263 2098.18 967.49 C 2099.14 969.942 2098.83 972.808 2098.8 975.525 C 2096.5 976.867 2041.11 976.276 2033.87 976.269 L 2033.87 1028.13 C 2048.04 1028.08 2081.91 1027.05 2094.54 1028.47 C 2096.04 1030.85 2095.57 1034.14 2095.54 1037.15 C 2086.72 1037.11 2039.44 1036.31 2034.36 1037.99 L 2033.87 1040.75 L 2033.87 1095.07 C 2042.46 1095.07 2093.42 1094.46 2098.79 1095.49 C 2098.89 1098.81 2099.19 1100.39 2098.02 1103.53 C 2091.21 1104.77 2078.08 1104.22 2070.52 1104.2 L 2024.22 1104.08 L 2024.19 967.25 z"/>
<path transform="translate(0,0)" fill="rgb(101,101,101)" d="M 2657.72 965.289 C 2673.61 963.707 2687.09 966.609 2701.83 972.031 L 2697.78 980.823 C 2651.96 960.415 2610.25 983.398 2610.86 1035.06 C 2611.34 1074.98 2629.01 1096.58 2669.69 1096.44 C 2680.4 1095.96 2685.61 1093.83 2695.7 1092.9 L 2697.05 1094.24 C 2697.33 1100.72 2692.47 1103.06 2686.68 1103.91 C 2665.91 1106.99 2642.83 1107.72 2625.05 1094.51 C 2595.12 1072.26 2593.01 1017.45 2614.34 988.676 C 2625.36 973.854 2639.95 967.795 2657.72 965.289 z"/>
<path transform="translate(0,0)" fill="rgb(101,101,101)" d="M 2250.03 967.243 L 2336 966.903 C 2341.19 966.872 2345.32 966.383 2348.93 969.937 C 2349.02 972.919 2349.59 973.749 2348.12 975.807 C 2341.15 976.793 2312.82 976.272 2304.29 976.273 L 2304.29 1058.5 C 2304.33 1070.23 2304.41 1088.96 2304.37 1101.13 C 2303.77 1101.96 2303.26 1102.66 2302.83 1103.24 C 2299.95 1104.57 2299.56 1104.54 2296.42 1103.98 C 2293.08 1100.16 2294.67 1068.41 2294.67 1061.57 L 2294.61 976.273 C 2284.5 976.312 2259.14 977.069 2250.94 975.887 C 2249.59 973.587 2250.01 970.107 2250.03 967.243 z"/>
<path transform="translate(0,0)" fill="rgb(101,101,101)" d="M 1582.05 967.236 C 1585.84 967.117 1587.36 966.919 1591.06 967.875 C 1592.23 972.022 1591.77 1002.4 1591.76 1008.8 L 1591.7 1104.08 C 1587.93 1104.19 1586.15 1104.41 1582.48 1103.45 C 1581.43 1096.55 1581.97 1067.64 1581.98 1059.16 L 1582.05 967.236 z"/>
<path transform="translate(0,0)" fill="rgb(101,101,101)" d="M 2534.75 1048.52 C 2546.91 1048.58 2567.36 1047.63 2578.74 1048.84 C 2580.38 1050.75 2580.08 1053.06 2580.42 1056.03 C 2575.23 1056.05 2537.74 1056.83 2535.5 1055.12 L 2534.75 1048.52 z"/>
<path transform="translate(0,0)" fill="rgb(101,101,101)" d="M 2358.23 1048.53 C 2371.23 1048.6 2389.27 1047.54 2401.74 1048.82 C 2403.71 1050.79 2403.31 1052.68 2403.76 1056.02 C 2397.49 1056.06 2361.57 1056.94 2358.72 1054.89 L 2358.23 1048.53 z"/>
<path transform="translate(0,0)" fill="rgb(254,58,79)" d="M 0 771.219 C 7.90053 725.976 36.4573 706.252 80.8728 713.399 C 107.664 717.71 153.839 750.902 161.73 707.033 C 165.547 682.953 163.859 650.401 163.841 625.625 L 163.795 479.899 C 163.8 436.479 157.892 400.014 198.929 371.911 C 216.244 360.19 237.521 355.868 258.036 359.905 C 290.355 366.184 316.268 395.259 320.06 427.702 C 321.704 441.758 321.019 457.781 321.013 472.042 L 320.937 544.817 L 320.982 645.076 C 320.998 675.074 322.34 705.238 316.602 734.881 C 308.275 777.894 286.706 814.306 250.245 839.178 C 206.835 868.79 144.261 870.84 94.1559 861.053 C 64.3421 855.23 28.5296 837.99 11.8721 811.575 C 4.69576 800.196 2.02901 792.247 0 778.796 L 0 771.219 z"/>
<path transform="translate(0,0)" fill="rgb(254,58,79)" d="M 3725.15 80.6268 C 3749.02 31.568 3805.97 -3.00746 3860.87 3.10907 C 3894.64 6.8718 3914.44 8.27955 3942.6 30.1675 C 3978.39 57.9919 3993.93 90.2771 4000 134.286 L 4000 151.861 C 3997.99 161.56 3997.98 169.282 3994.68 179.922 C 3980.1 226.875 3960.88 248.786 3920.08 272.18 L 3920.07 547.277 C 3908.76 557.863 3869.13 599.657 3855.96 600.388 C 3852.6 600.575 3849.5 599.486 3846.64 597.822 C 3833.58 590.239 3804 560.529 3791.27 548.918 L 3791.27 275.256 C 3783.6 269.888 3776 264.429 3768.46 258.878 C 3727.75 228.288 3715.54 194.021 3708.85 146.154 L 3737.72 146.156 C 3738.56 152.717 3739.58 159.254 3740.77 165.76 C 3750.02 214.275 3780.44 231.42 3816.68 256.185 C 3820.35 277.444 3819.7 336.236 3819.73 359.921 L 3819.73 536.979 C 3831.38 547.61 3843.15 558.102 3855.05 568.451 L 3891.81 536.153 L 3891.82 361.157 C 3891.84 335.498 3890.86 279.697 3894.93 256.208 C 3908.85 245.986 3925.2 237.083 3937.89 224.97 C 3952.61 210.882 3966.38 186.905 3970.02 166.845 C 3971.86 156.746 3971.76 129.75 3970.07 119.995 C 3966.87 101.619 3952.87 78.7401 3939.96 65.3918 C 3917.95 42.7578 3887.83 29.8232 3856.26 29.4476 C 3821.02 29.0176 3791.07 43.2139 3768.02 68.6941 C 3754.58 83.5456 3744.47 80.813 3725.15 80.6268 z"/>
<path transform="translate(0,0)" fill="rgb(254,58,79)" d="M 3469.23 0 L 3551.26 0 C 3554.27 1.44483 3572.05 0.783056 3577.15 1.129 C 3595.81 2.39243 3613.96 3.84251 3630.79 12.5027 C 3654.32 24.6051 3677.97 54.5697 3685.69 79.4562 C 3654.94 83.3216 3658.98 79.2305 3640.47 56.9171 C 3633.57 48.5971 3614.25 33.6448 3603.61 32.596 C 3550.84 27.3928 3490.25 25.4419 3438.02 33.0618 C 3418.79 35.8672 3383.14 82.5747 3366.02 93.8336 C 3355.78 100.752 3347.63 104.806 3335.34 108.963 C 3300.13 120.866 3268.79 151.692 3272.74 191.17 C 3273.99 203.071 3305.69 201.545 3308.25 204.925 C 3320.38 220.873 3312.11 236.343 3334.25 249.248 C 3359.47 263.951 3383.03 251.688 3394.1 226.91 C 3397.03 220.365 3397.07 213.233 3400.91 206.738 C 3412.75 200.015 3513.66 203.785 3533.18 204.148 C 3537.95 224.397 3545.64 249.146 3568.61 254.457 C 3575.61 256.017 3582.9 255.731 3589.76 253.628 C 3619.91 244.505 3613.15 213.849 3640.36 203.271 C 3647.62 200.445 3653.55 199.879 3660.53 195.594 C 3663.71 181.229 3663 161.151 3662.94 146.154 L 3688.07 146.156 C 3688.14 162.167 3690 193.555 3685.02 207.509 C 3682.07 224.095 3653.26 225.023 3648.57 231.199 C 3632.97 251.752 3633.13 265.699 3604.67 277.01 C 3587.11 283.923 3567.52 283.574 3550.21 276.041 C 3526.8 265.811 3518.12 249.872 3509.39 227.81 L 3423.36 227.803 C 3417.78 242.4 3413.55 253.326 3401.43 264.308 C 3387.61 276.815 3369.37 283.288 3350.76 282.29 C 3330.77 281.239 3309.51 270.374 3298.47 253.309 C 3293.2 245.148 3289.9 236.361 3283.28 228.976 L 3282.94 228.61 C 3273.46 227.025 3267.79 225.421 3259.79 219.348 C 3227.57 193.341 3249.79 146.721 3269.05 120.636 C 3291.98 89.5731 3316.62 89.149 3347.27 71.4961 C 3355.64 66.6783 3368.99 52.3762 3375.47 45.0868 C 3393.98 24.2518 3415.49 6.77304 3443.83 2.34548 C 3452.3 0.953393 3460.55 1.01038 3469.23 0 z"/>
</svg>