<svg xmlns="http://www.w3.org/2000/svg" viewBox="0 0 512 512" role="img" aria-label="WhatsApp">
  <rect width="512" height="512" rx="92" fill="#18b957"/>
  <path fill="#fff" d="M407.3 104.7A211.6 211.6 0 0 0 255.7 42C137.4 42 41 138.3 41 256.7c0 37.8 9.9 74.8 28.7 107.3L39 476l114.4-30c31.5 17.2 67 26.2 103.1 26.2h.1c118.3 0 216.8-96.3 216.8-214.7 0-57.4-24.2-111.4-66.1-152.8Zm-150.7 331c-32.2 0-63.8-8.6-91.2-24.9l-6.5-3.9-67.8 17.8 18.1-66.2-4.3-6.8a178.6 178.6 0 0 1-27.4-95c0-98.7 80.4-179 179.1-179 47.8 0 92.8 18.6 126.6 52.5a177.8 177.8 0 0 1 54.4 126.6c0 98.8-82.3 178.9-181 178.9Zm98.2-134c-5.4-2.7-31.8-15.7-36.8-17.5-5-1.8-8.6-2.7-12.2 2.7-3.6 5.4-13.9 17.5-17 21.1-3.2 3.6-6.3 4.1-11.7 1.4-31.7-15.8-52.4-28.2-73.3-64-5.5-9.5 5.5-8.8 15.8-29.4 1.7-3.6.9-6.7-.5-9.4-1.4-2.7-12.2-29.2-16.6-40-4.4-10.5-8.8-9-12.2-9.2-3.1-.2-6.7-.2-10.3-.2s-9.4 1.4-14.4 6.7c-4.9 5.4-18.8 18.4-18.8 44.9 0 26.5 19.3 52.1 22 55.7 2.7 3.6 38 57.9 92 81.3 34.2 14.7 47.6 16 64.7 13.5 10.4-1.6 31.8-13 36.3-25.6 4.5-12.6 4.5-23.4 3.1-25.6-1.3-2.5-4.8-3.8-10.1-6.4Z"/>
</svg>
