<svg xmlns="http://www.w3.org/2000/svg" viewBox="0 0 1500 372.24"><defs><style>.cls-1{fill:#fe8c00;}</style></defs><title>Sunclass_logo_special_orange_RGB</title><path class="cls-1" d="M210,486.21l13.32-2c2.55,24.65,21.53,46.47,54.4,46.47,28.9,0,49.87-16.43,50.15-43.35.29-26.07-21.25-36-39.38-41.09l-10.77-3.11c-23.52-6.8-37.4-14.74-37.4-33.44,0-18.13,13.6-32.3,36.27-32.3,25.5,0,36.27,17.56,38,33.15l-13.32,2c-2.27-11.9-8.79-22.1-24.65-22.1-13.32,0-22.67,7.09-22.67,18.7,0,13.32,10.2,17,27.48,21.82l11.34,3.12c26.92,7.37,48.73,21.82,48.73,52.7,0,35.7-28.9,57-63.75,57C236.92,543.73,213.12,515.11,210,486.21Zm24.08-3.4,13.32-2.27c2.27,15.87,10.49,26.63,30.32,26.63,16.44,0,25.5-7.65,25.5-20.4,0-12.47-11.05-16.72-24.65-20.12L264.4,463c-22.95-6-48.73-19-48.73-51.85,0-37.69,29.47-57.24,60.92-57.24,34.57,0,60.92,23.8,61.77,53l-13,2.26c-2.26-22.1-19-42.22-48.73-42.22-27.2,0-47,15.59-47.32,43.36-.29,25.21,19.27,34.57,41.65,40.8l14.45,4c15,4.25,31.45,11.33,31.45,31.73,0,19.84-15,33.44-39.1,33.44C248.54,520.21,235.79,500.94,234.08,482.81Z" transform="translate(-210 -353.88)"/><path class="cls-1" d="M365.56,469.2V356.71h13.6V470.34c0,38,22.39,60.35,58.65,60.35s58.66-22.38,58.66-60.35V356.71h13.6V469.2c0,49-29.19,74.53-72.26,74.53S365.56,518.22,365.56,469.2Zm24.65-1.41V356.71h13.6V467.5c0,24.09,12.47,39.67,34,39.67s34-15.58,34-39.67V356.71h13.6V467.79c0,33.43-18.42,52.42-47.61,52.42S390.21,501.22,390.21,467.79Z" transform="translate(-210 -353.88)"/><path class="cls-1" d="M542.66,356.71h10.2L680.37,540.89H664.5L580.91,419.33V540.89h-13.6V398.08l-11-15.58V540.89h-13.6Zm23.8,0h15.87L666.2,478.84V356.71h13.6v143.1l11.05,15.58V356.71h13.6V540.89H694Z" transform="translate(-210 -353.88)"/><path class="cls-1" d="M907.33,490.17c-13.31,33.44-45.9,53.56-83.87,53.56-54.12,0-94.35-40.52-94.35-94.93s40.23-94.92,94.35-94.92c33.72,0,66.59,17.85,81,51L891.75,410c-11.9-28.33-38.25-43.35-68.29-43.07-47.88.57-80.47,33.72-80.47,81.89s32.59,81.61,80.47,81.89c34.29,0,60.36-17.85,71.12-45.62ZM767.93,448.8c0,34.29,23,58.37,55.53,58.37,22.67,0,40.24-11.61,48.46-31.45l12.46,5.1c-10.2,24.37-30.6,39.39-60.92,39.39-40.52,0-69.42-29.47-69.42-71.41s28.9-71.4,69.42-71.4c26.35,0,48.17,13,58.37,37.4l-12.75,5.38c-6.8-18.7-23.8-29.75-45.62-29.75C790.88,390.43,767.93,414.52,767.93,448.8Z" transform="translate(-210 -353.88)"/><path class="cls-1" d="M928,356.71h13.6V540.89H928V356.71Zm38.25,160.66v10.49h82.18v13H952.67V356.71h13.6V504.34h82.18v13Z" transform="translate(-210 -353.88)"/><path class="cls-1" d="M1147.06,356.71l-10.38,25.85L1073.1,540.89h-14.73l31.52-78.2,42.71-106Zm17,20.4-6.24,14.46,59.79,149.32h-14.74l-12.75-31.73h-77.63l-12.76,31.73H1085l74-184.18h10.2l75.08,184.18h-14.73Zm21,119-4.25-10.48h-58.93l-4.25,10.48Zm-33.72-84.44-24.36,60.92h48.73Z" transform="translate(-210 -353.88)"/><path class="cls-1" d="M1244.53,486.21l13.32-2c2.55,24.65,21.53,46.47,54.4,46.47,28.9,0,49.87-16.43,50.15-43.35.29-26.07-21.25-36-39.38-41.09l-10.77-3.11c-23.52-6.8-37.4-14.74-37.4-33.44,0-18.13,13.6-32.3,36.27-32.3,25.5,0,36.27,17.56,38,33.15l-13.32,2c-2.27-11.9-8.79-22.1-24.65-22.1-13.32,0-22.67,7.09-22.67,18.7,0,13.32,10.2,17,27.48,21.82l11.34,3.12c26.92,7.37,48.73,21.82,48.73,52.7,0,35.7-28.9,57-63.75,57C1271.45,543.73,1247.65,515.11,1244.53,486.21Zm24.08-3.4,13.32-2.27c2.27,15.87,10.48,26.63,30.32,26.63,16.43,0,25.5-7.65,25.5-20.4,0-12.47-11-16.72-24.65-20.12L1298.93,463c-23-6-48.73-19-48.73-51.85,0-37.69,29.46-57.24,60.92-57.24,34.57,0,60.92,23.8,61.77,53l-13,2.26c-2.26-22.1-19-42.22-48.73-42.22-27.21,0-47,15.59-47.32,43.36-.29,25.21,19.26,34.57,41.65,40.8l14.45,4c15,4.25,31.45,11.33,31.45,31.73,0,19.84-15,33.44-39.1,33.44C1283.06,520.21,1270.31,500.94,1268.61,482.81Z" transform="translate(-210 -353.88)"/><path class="cls-1" d="M1391.87,486.21l13.32-2c2.55,24.65,21.53,46.47,54.4,46.47,28.9,0,49.87-16.43,50.16-43.35.28-26.07-21.26-36-39.39-41.09l-10.77-3.11c-23.52-6.8-37.4-14.74-37.4-33.44,0-18.13,13.6-32.3,36.27-32.3,25.5,0,36.27,17.56,38,33.15l-13.32,2c-2.27-11.9-8.78-22.1-24.65-22.1-13.32,0-22.67,7.09-22.67,18.7,0,13.32,10.2,17,27.49,21.82l11.33,3.12c26.92,7.37,48.74,21.82,48.74,52.7,0,35.7-28.91,57-63.76,57C1418.79,543.73,1395,515.11,1391.87,486.21Zm24.09-3.4,13.31-2.27c2.27,15.87,10.49,26.63,30.32,26.63,16.44,0,25.5-7.65,25.5-20.4,0-12.47-11-16.72-24.65-20.12L1446.28,463c-23-6-48.74-19-48.74-51.85,0-37.69,29.47-57.24,60.92-57.24,34.57,0,60.92,23.8,61.77,53l-13,2.26c-2.27-22.1-19-42.22-48.74-42.22-27.2,0-47,15.59-47.32,43.36-.28,25.21,19.27,34.57,41.65,40.8l14.45,4c15,4.25,31.45,11.33,31.45,31.73,0,19.84-15,33.44-39.1,33.44C1430.41,520.21,1417.66,500.94,1416,482.81Z" transform="translate(-210 -353.88)"/><path class="cls-1" d="M1685.49,366.21c-11.85,4.5-19.61,7.7-27.78,9.53-1.5.34-2.93.62-4.3.87a52.44,52.44,0,0,1-6.82.87c-5.74.4-10-.32-13.19-2.18l-.06,0-.49-.31a8.86,8.86,0,0,1-3.69-7.33V366.5c0-.07,0-.14,0-.2v0a12.3,12.3,0,0,0-.46-3.31,11.73,11.73,0,0,0-4.68-6.46l-.54-.34c-4.93-2.91-12.66-3-24.32-.43a230.66,230.66,0,0,0-30.17,9.52c-7.58,2.88-14.84,5.89-21,8.53v13.6c6.44-2.8,14.3-6.08,22.53-9.2a230,230,0,0,1,30.17-9.53c1.5-.33,2.93-.62,4.3-.87a52.44,52.44,0,0,1,6.82-.87c5.74-.4,10,.32,13.2,2.18l0,0,.47.3a8.57,8.57,0,0,1,3.61,7h0s0,.07,0,.1v1.18a13.35,13.35,0,0,0,.79,4.38,11.67,11.67,0,0,0,4.41,5.77l.58.36c4.93,2.91,12.66,3,24.32.44,8.16-1.83,15.92-5,27.78-9.53,5.1-1.93,11.23-4.38,16.57-6.59l6.39-16.4C1703,359.25,1695.68,362.35,1685.49,366.21Z" transform="translate(-210 -353.88)"/><path class="cls-1" d="M1685.5,390.87c-11.86,4.49-19.62,7.7-27.78,9.52-1.5.34-2.94.63-4.31.87a52.76,52.76,0,0,1-6.82.88c-5.74.39-10-.32-13.19-2.18l-.06,0a5.72,5.72,0,0,1-.48-.32,8.85,8.85,0,0,1-3.7-7.33v-1.13c0-.07,0-.14,0-.2v0a11.92,11.92,0,0,0-.46-3.31,11.73,11.73,0,0,0-4.68-6.46c-.17-.12-.35-.23-.54-.34-4.93-2.9-12.65-3-24.32-.43a232.2,232.2,0,0,0-30.17,9.52c-7.58,2.88-14.84,5.89-21,8.54v13.6c6.44-2.81,14.3-6.09,22.53-9.21a230.19,230.19,0,0,1,30.17-9.52c1.5-.34,2.93-.63,4.3-.88a54.38,54.38,0,0,1,6.83-.87c5.73-.4,10,.32,13.19,2.18l.06,0,.46.29a8.56,8.56,0,0,1,3.61,7h0s0,.07,0,.11v1.18a13.29,13.29,0,0,0,.79,4.37,11.7,11.7,0,0,0,4.42,5.78l.57.36c4.93,2.9,12.66,3,24.32.43,8.17-1.83,15.92-5,27.78-9.53,1.65-.62,3.4-1.3,5.2-2l6.24-16.05C1694.62,387.34,1690.39,389,1685.5,390.87Z" transform="translate(-210 -353.88)"/><path class="cls-1" d="M387.19,723.81H372.7V579.12h14.49V723.81Z" transform="translate(-210 -353.88)"/><path class="cls-1" d="M459.08,579.12C490,579.12,504,598,504,621.54c0,21.63-13,39.48-37.59,41.79l42.63,60.48h-17l-42.42-60.06H435.35v60.06H420.86V579.12Zm0,71c19.53,0,30.45-12.6,30.45-28.56s-9.45-28.77-30.66-28.77H435.35V650.1Z" transform="translate(-210 -353.88)"/><path class="cls-1" d="M544.66,579.12V710h50.4v13.86H530.17V579.12Z" transform="translate(-210 -353.88)"/><path class="cls-1" d="M628,723.81H613.52V579.12H628V723.81Z" transform="translate(-210 -353.88)"/><path class="cls-1" d="M674,579.12,755.94,695V579.12h14.49V723.81H758.88L677.19,607.89V723.81H662.7V579.12Z" transform="translate(-210 -353.88)"/><path class="cls-1" d="M881.1,579.12V593H817.68v48.93h58.38v13.86H817.68V710h64.47v13.86h-79V579.12Z" transform="translate(-210 -353.88)"/><path class="cls-1" d="M915.13,683.28c.63,16,14.07,28.77,32.13,28.77,19.11,0,31.29-14.28,31.29-29.4,0-11.76-7.35-18.27-17.64-22.26-5.46-2.1-22.26-7.56-25.62-8.61-22.47-7.56-29.4-22-29.4-35.91,0-23.1,19.11-39.48,42-39.48,23.1,0,41.79,16.59,42,38.85h-14.7c-.42-11.34-10.29-24.36-26.67-24.36-13.23,0-28.14,8.19-28.14,24.36,0,13.86,11.13,19.74,19.32,22.68,5,1.89,23.73,8,25.83,8.61,14.91,5,27.51,17.64,27.51,36.33,0,20.79-15.75,43.26-45.15,43.26-27.3,0-47-19.32-47.46-42.84Z" transform="translate(-210 -353.88)"/><path class="cls-1" d="M297.69,579.12H280.56L223.61,723.81h15.57l15.63-39.72h68.62l15.64,39.72h15.57ZM260.1,670.66l29-73.74,29,73.74Z" transform="translate(-210 -353.88)"/></svg>